<?xml version="1.0" encoding="UTF-8" standalone="no"?>
<!DOCTYPE svg PUBLIC "-//W3C//DTD SVG 1.1//EN"
 "http://www.w3.org/Graphics/SVG/1.1/DTD/svg11.dtd">
<!-- Generated by graphviz version 2.42.3 (20191010.1750)
 -->
<!-- Title: %3 Pages: 1 -->
<svg width="172pt" height="454pt"
 viewBox="0.00 0.00 171.50 454.00" xmlns="http://www.w3.org/2000/svg" xmlns:xlink="http://www.w3.org/1999/xlink">
<g id="graph0" class="graph" transform="scale(1 1) rotate(0) translate(4 450)">
<title>%3</title>
<polygon fill="white" stroke="transparent" points="-4,4 -4,-450 167.5,-450 167.5,4 -4,4"/>
<!-- 140401954596656 -->
<g id="node1" class="node">
<title>140401954596656</title>
<polygon fill="#caff70" stroke="black" points="136,-21 45,-21 45,0 136,0 136,-21"/>
<text text-anchor="middle" x="90.5" y="-7.4" font-family="Times,serif" font-size="12.00">MulBackward0</text>
</g>
<!-- 140401954596416 -->
<g id="node2" class="node">
<title>140401954596416</title>
<polygon fill="lightgrey" stroke="black" points="139.5,-78 41.5,-78 41.5,-57 139.5,-57 139.5,-78"/>
<text text-anchor="middle" x="90.5" y="-64.4" font-family="Times,serif" font-size="12.00">MeanBackward0</text>
</g>
<!-- 140401954596416&#45;&gt;140401954596656 -->
<g id="edge1" class="edge">
<title>140401954596416&#45;&gt;140401954596656</title>
<path fill="none" stroke="black" d="M90.5,-56.92C90.5,-49.91 90.5,-40.14 90.5,-31.47"/>
<polygon fill="black" stroke="black" points="94,-31.34 90.5,-21.34 87,-31.34 94,-31.34"/>
</g>
<!-- 140401954596272 -->
<g id="node3" class="node">
<title>140401954596272</title>
<polygon fill="lightgrey" stroke="black" points="136,-135 45,-135 45,-114 136,-114 136,-135"/>
<text text-anchor="middle" x="90.5" y="-121.4" font-family="Times,serif" font-size="12.00">MulBackward0</text>
</g>
<!-- 140401954596272&#45;&gt;140401954596416 -->
<g id="edge2" class="edge">
<title>140401954596272&#45;&gt;140401954596416</title>
<path fill="none" stroke="black" d="M90.5,-113.92C90.5,-106.91 90.5,-97.14 90.5,-88.47"/>
<polygon fill="black" stroke="black" points="94,-88.34 90.5,-78.34 87,-88.34 94,-88.34"/>
</g>
<!-- 140401954597088 -->
<g id="node4" class="node">
<title>140401954597088</title>
<polygon fill="lightgrey" stroke="black" points="135.5,-192 45.5,-192 45.5,-171 135.5,-171 135.5,-192"/>
<text text-anchor="middle" x="90.5" y="-178.4" font-family="Times,serif" font-size="12.00">SubBackward0</text>
</g>
<!-- 140401954597088&#45;&gt;140401954596272 -->
<g id="edge3" class="edge">
<title>140401954597088&#45;&gt;140401954596272</title>
<path fill="none" stroke="black" d="M85.23,-170.92C83.85,-163.91 83.44,-154.14 83.98,-145.47"/>
<polygon fill="black" stroke="black" points="87.48,-145.68 85.18,-135.34 80.53,-144.86 87.48,-145.68"/>
</g>
<!-- 140401954597088&#45;&gt;140401954596272 -->
<g id="edge9" class="edge">
<title>140401954597088&#45;&gt;140401954596272</title>
<path fill="none" stroke="black" d="M95.77,-170.92C97.15,-163.91 97.56,-154.14 97.02,-145.47"/>
<polygon fill="black" stroke="black" points="100.47,-144.86 95.82,-135.34 93.52,-145.68 100.47,-144.86"/>
</g>
<!-- 140401954596512 -->
<g id="node5" class="node">
<title>140401954596512</title>
<polygon fill="lightgrey" stroke="black" points="131,-249 50,-249 50,-228 131,-228 131,-249"/>
<text text-anchor="middle" x="90.5" y="-235.4" font-family="Times,serif" font-size="12.00">SinBackward</text>
</g>
<!-- 140401954596512&#45;&gt;140401954597088 -->
<g id="edge4" class="edge">
<title>140401954596512&#45;&gt;140401954597088</title>
<path fill="none" stroke="black" d="M90.5,-227.92C90.5,-220.91 90.5,-211.14 90.5,-202.47"/>
<polygon fill="black" stroke="black" points="94,-202.34 90.5,-192.34 87,-202.34 94,-202.34"/>
</g>
<!-- 140401954597616 -->
<g id="node6" class="node">
<title>140401954597616</title>
<polygon fill="lightgrey" stroke="black" points="136.5,-306 44.5,-306 44.5,-285 136.5,-285 136.5,-306"/>
<text text-anchor="middle" x="90.5" y="-292.4" font-family="Times,serif" font-size="12.00">AddBackward0</text>
</g>
<!-- 140401954597616&#45;&gt;140401954596512 -->
<g id="edge5" class="edge">
<title>140401954597616&#45;&gt;140401954596512</title>
<path fill="none" stroke="black" d="M90.5,-284.92C90.5,-277.91 90.5,-268.14 90.5,-259.47"/>
<polygon fill="black" stroke="black" points="94,-259.34 90.5,-249.34 87,-259.34 94,-259.34"/>
</g>
<!-- 140401954596560 -->
<g id="node7" class="node">
<title>140401954596560</title>
<polygon fill="lightgrey" stroke="black" points="91,-369.5 0,-369.5 0,-348.5 91,-348.5 91,-369.5"/>
<text text-anchor="middle" x="45.5" y="-355.9" font-family="Times,serif" font-size="12.00">MulBackward0</text>
</g>
<!-- 140401954596560&#45;&gt;140401954597616 -->
<g id="edge6" class="edge">
<title>140401954596560&#45;&gt;140401954597616</title>
<path fill="none" stroke="black" d="M52.53,-348.39C59.16,-339.33 69.27,-325.51 77.39,-314.42"/>
<polygon fill="black" stroke="black" points="80.29,-316.38 83.37,-306.24 74.64,-312.25 80.29,-316.38"/>
</g>
<!-- 140401954597952 -->
<g id="node8" class="node">
<title>140401954597952</title>
<polygon fill="lightblue" stroke="black" points="72.5,-446 18.5,-446 18.5,-412 72.5,-412 72.5,-446"/>
<text text-anchor="middle" x="45.5" y="-432.4" font-family="Times,serif" font-size="12.00">o</text>
<text text-anchor="middle" x="45.5" y="-419.4" font-family="Times,serif" font-size="12.00"> (1)</text>
</g>
<!-- 140401954597952&#45;&gt;140401954596560 -->
<g id="edge7" class="edge">
<title>140401954597952&#45;&gt;140401954596560</title>
<path fill="none" stroke="black" d="M45.5,-411.88C45.5,-402.31 45.5,-390.09 45.5,-379.91"/>
<polygon fill="black" stroke="black" points="49,-379.89 45.5,-369.89 42,-379.89 49,-379.89"/>
</g>
<!-- 140401954597232 -->
<g id="node9" class="node">
<title>140401954597232</title>
<polygon fill="lightblue" stroke="black" points="163.5,-376 109.5,-376 109.5,-342 163.5,-342 163.5,-376"/>
<text text-anchor="middle" x="136.5" y="-362.4" font-family="Times,serif" font-size="12.00">t</text>
<text text-anchor="middle" x="136.5" y="-349.4" font-family="Times,serif" font-size="12.00"> (1)</text>
</g>
<!-- 140401954597232&#45;&gt;140401954597616 -->
<g id="edge8" class="edge">
<title>140401954597232&#45;&gt;140401954597616</title>
<path fill="none" stroke="black" d="M124.41,-341.84C118.03,-333.3 110.17,-322.8 103.64,-314.06"/>
<polygon fill="black" stroke="black" points="106.43,-311.95 97.64,-306.04 100.82,-316.15 106.43,-311.95"/>
</g>
</g>
</svg>
